<svg version="1.1" xmlns="http://www.w3.org/2000/svg" xmlns:xlink="http://www.w3.org/1999/xlink" width="500" height="500"><g data-paper-data="{&quot;description&quot;:&quot;Logo for LiTty\n==============\n\nThis logo was generated by MarkMaker at http://emblemmatic.org/markmaker/ and may be composed of elements designed by others.\n\nThe font is Cabin Condensed Bold designed by Pablo Impallari and released under the OFL license via Google Fonts: https://www.google.com/fonts/specimen/Cabin%20Condensed. The font includes this copyright statement: Copyright (c) 2011 by Pablo Impallari (www.impallari.com impallari@gmail.com) Igino Marini. www.ikern.com. All rights reserved.\n\nMarkMaker uses semantic data from the Princeton University WordNet database http://wordnet.princeton.edu and font descriptions from Google Fonts https://www.google.com/fonts.&quot;}" fill="#11c7c7" fill-rule="nonzero" stroke="none" stroke-width="1" stroke-linecap="butt" stroke-linejoin="miter" stroke-miterlimit="10" stroke-dasharray="" stroke-dashoffset="0" font-family="none" font-weight="none" font-size="none" text-anchor="none" style="mix-blend-mode: normal"><g data-paper-data="{&quot;elementType&quot;:&quot;logo&quot;}"><g data-paper-data="{&quot;elementType&quot;:&quot;text&quot;}"><g data-paper-data="{&quot;baseline&quot;:70,&quot;elementType&quot;:&quot;row&quot;}"><g data-paper-data="{&quot;baselineProportion&quot;:0.7430997876857749,&quot;fontSize&quot;:100,&quot;baseline&quot;:70,&quot;elementType&quot;:&quot;word&quot;}"><path d="M50,368.0654v-180.41237l31.4433,-7.54456v148.45361l60.82474,-14.59439v31.95876z" data-paper-data="{&quot;elementType&quot;:&quot;letter&quot;,&quot;baseline&quot;:70,&quot;baselineProportion&quot;:1,&quot;fontSize&quot;:100}"></path><path d="M139.17526,346.66853v-128.86598l30.6701,-7.35904v128.86598zM139.17526,198.21492v-31.95876l30.6701,-7.35904v31.95876l-30.6701,7.35904" data-paper-data="{&quot;elementType&quot;:&quot;letter&quot;,&quot;baseline&quot;:70,&quot;baselineProportion&quot;:1,&quot;fontSize&quot;:100}"></path><path d="M238.91753,174.2826v148.45361l-31.4433,7.54456v-148.45361l-43.29897,10.38923v-31.95876l118.04124,-28.32302v31.95876z" data-paper-data="{&quot;elementType&quot;:&quot;letter&quot;,&quot;baseline&quot;:70,&quot;baselineProportion&quot;:1,&quot;fontSize&quot;:100}"></path><path d="M337.8866,301.56672l-20.36082,4.88541c-5.32646,1.27804 -9.87973,1.38259 -13.65979,0.31364c-3.78007,-1.06895 -6.91581,-2.89387 -9.40722,-5.47478c-2.49141,-2.5809 -4.33849,-5.74596 -5.54124,-9.49517c-1.20275,-3.74921 -1.80412,-7.68567 -1.80412,-11.80938v-71.39175l-14.43299,3.46308l2.83505,-26.96891l11.59794,-2.78283v-28.35052l30.92784,-10.77139v31.70103l22.42268,-5.38014v26.28866l-22.42268,5.38014v58.24742c0,4.98282 0.12887,8.81788 0.3866,11.50518c0.25773,2.6873 0.85911,4.56191 1.80412,5.62382c0.94502,1.06191 2.36254,1.53794 4.25258,1.42808c1.89003,-0.10986 4.46735,-0.55644 7.73196,-1.33976l8.50515,-2.04074z" data-paper-data="{&quot;elementType&quot;:&quot;letter&quot;,&quot;baseline&quot;:62.300000000000004,&quot;baselineProportion&quot;:0.9842022116903634,&quot;fontSize&quot;:100}"></path><path d="M379.38144,351.40419l-29.63918,7.11167l24.2268,-76.68931l-46.39175,-109.22951l34.27835,-8.22481l26.03093,76.74379l27.83505,-89.66848l34.27835,-8.22481z" data-paper-data="{&quot;elementType&quot;:&quot;letter&quot;,&quot;baseline&quot;:50,&quot;baselineProportion&quot;:0.6738544474393531,&quot;fontSize&quot;:100}"></path></g></g></g></g></g></svg>